<svg width="160" height="32" viewBox="0 0 160 32" fill="none" xmlns="http://www.w3.org/2000/svg">
<path d="M4.87005 14.8034C4.73511 14.8034 4.62042 14.7563 4.52597 14.6621C4.43151 14.568 4.38429 14.4536 4.38429 14.3191V3.16151H0.639894C0.504961 3.16151 0.390268 3.11443 0.295815 3.02027C0.201362 2.92612 0.154135 2.81178 0.154135 2.67727V1.18421C0.154135 1.03625 0.201362 0.915187 0.295815 0.82103C0.390268 0.726873 0.504961 0.679794 0.639894 0.679794H10.9623C11.1107 0.679794 11.2321 0.726873 11.3266 0.82103C11.421 0.915187 11.4683 1.03625 11.4683 1.18421V2.67727C11.4683 2.81178 11.421 2.92612 11.3266 3.02027C11.2321 3.11443 11.1107 3.16151 10.9623 3.16151H7.23812V14.3191C7.23812 14.4536 7.1909 14.568 7.09644 14.6621C7.00199 14.7563 6.88055 14.8034 6.73212 14.8034H4.87005Z" fill="white"/>
<path d="M14.0078 14.8034C13.8728 14.8034 13.7581 14.7563 13.6637 14.6621C13.5692 14.568 13.522 14.4536 13.522 14.3191V1.18421C13.522 1.03625 13.5692 0.915187 13.6637 0.82103C13.7581 0.726873 13.8728 0.679794 14.0078 0.679794H19.4321C20.4845 0.679794 21.4021 0.847932 22.1847 1.18421C22.9673 1.50703 23.5745 2.00472 24.0063 2.67727C24.4381 3.33637 24.654 4.16361 24.654 5.15899C24.654 6.16781 24.4381 7.00178 24.0063 7.66088C23.5745 8.30653 22.9673 8.79077 22.1847 9.11359C21.4021 9.43641 20.4845 9.59783 19.4321 9.59783H16.4163V14.3191C16.4163 14.4536 16.3691 14.568 16.2746 14.6621C16.1937 14.7563 16.079 14.8034 15.9306 14.8034H14.0078ZM16.3758 7.35823H19.3309C20.1135 7.35823 20.7139 7.17664 21.1322 6.81346C21.5505 6.43683 21.7597 5.88534 21.7597 5.15899C21.7597 4.48644 21.564 3.9484 21.1727 3.54486C20.7814 3.12788 20.1675 2.91939 19.3309 2.91939H16.3758V7.35823Z" fill="white"/>
<path d="M27.3495 14.8034C27.2146 14.8034 27.0999 14.7563 27.0055 14.6621C26.911 14.568 26.8638 14.4469 26.8638 14.299V1.18421C26.8638 1.03625 26.911 0.915187 27.0055 0.82103C27.0999 0.726873 27.2213 0.679794 27.3698 0.679794H29.1914C29.3398 0.679794 29.4545 0.726873 29.5354 0.82103C29.6299 0.915187 29.6771 1.03625 29.6771 1.18421V10.4452L36.3361 1.00262C36.39 0.935364 36.4643 0.868109 36.5587 0.800854C36.6532 0.720147 36.7746 0.679794 36.923 0.679794H38.6029C38.7379 0.679794 38.8526 0.726873 38.947 0.82103C39.0415 0.915187 39.0887 1.03625 39.0887 1.18421V14.3191C39.0887 14.4536 39.0415 14.568 38.947 14.6621C38.8526 14.7563 38.7379 14.8034 38.6029 14.8034H36.7814C36.6329 14.8034 36.5115 14.7563 36.417 14.6621C36.3226 14.568 36.2754 14.4536 36.2754 14.3191V5.23969L29.6366 14.4806C29.5962 14.5344 29.5287 14.6016 29.4342 14.6823C29.3398 14.763 29.2116 14.8034 29.0497 14.8034H27.3495Z" fill="white"/>
<path d="M42.7272 14.8034C42.5922 14.8034 42.4775 14.7563 42.3831 14.6621C42.2886 14.568 42.2414 14.4536 42.2414 14.3191V1.18421C42.2414 1.03625 42.2886 0.915187 42.3831 0.82103C42.4775 0.726873 42.5922 0.679794 42.7272 0.679794H50.9851C51.1335 0.679794 51.2549 0.726873 51.3494 0.82103C51.4438 0.915187 51.4911 1.03625 51.4911 1.18421V2.59657C51.4911 2.73108 51.4438 2.84541 51.3494 2.93957C51.2549 3.03372 51.1335 3.0808 50.9851 3.0808H45.0548V14.3191C45.0548 14.4536 45.0075 14.568 44.9131 14.6621C44.8321 14.7563 44.7174 14.8034 44.569 14.8034H42.7272Z" fill="white"/>
<path d="M53.7168 14.8034C53.5819 14.8034 53.4672 14.7563 53.3727 14.6621C53.2783 14.568 53.2311 14.4536 53.2311 14.3191V1.18421C53.2311 1.03625 53.2783 0.915187 53.3727 0.82103C53.4672 0.726873 53.5819 0.679794 53.7168 0.679794H62.6224C62.7708 0.679794 62.8923 0.726873 62.9867 0.82103C63.0812 0.915187 63.1284 1.03625 63.1284 1.18421V2.51586C63.1284 2.65037 63.0812 2.7647 62.9867 2.85886C62.8923 2.95302 62.7708 3.0001 62.6224 3.0001H55.9635V6.57135H62.1771C62.3256 6.57135 62.447 6.61842 62.5414 6.71258C62.6359 6.79329 62.6831 6.90762 62.6831 7.05558V8.30653C62.6831 8.45449 62.6359 8.57555 62.5414 8.66971C62.447 8.75041 62.3256 8.79077 62.1771 8.79077H55.9635V12.4831H62.7843C62.9328 12.4831 63.0542 12.5302 63.1486 12.6243C63.2431 12.7185 63.2903 12.8395 63.2903 12.9875V14.3191C63.2903 14.4536 63.2431 14.568 63.1486 14.6621C63.0542 14.7563 62.9328 14.8034 62.7843 14.8034H53.7168Z" fill="white"/>
<path d="M66.3075 14.8034C66.1726 14.8034 66.0579 14.763 65.9634 14.6823C65.869 14.5882 65.8217 14.4671 65.8217 14.3191V1.18421C65.8217 1.03625 65.869 0.915187 65.9634 0.82103C66.0579 0.726873 66.1726 0.679794 66.3075 0.679794H68.1493C68.2978 0.679794 68.4125 0.726873 68.4934 0.82103C68.5879 0.915187 68.6351 1.03625 68.6351 1.18421V6.38976H70.396L73.6951 1.04297C73.7626 0.935363 73.8503 0.847932 73.9582 0.780677C74.0797 0.713422 74.2348 0.679794 74.4237 0.679794H76.4275C76.5624 0.679794 76.6636 0.720147 76.7311 0.800854C76.812 0.88156 76.8525 0.982443 76.8525 1.1035C76.8525 1.17076 76.8255 1.25146 76.7716 1.34562L72.9462 7.49947L77.1359 14.1174C77.1764 14.1577 77.1966 14.2317 77.1966 14.3393C77.1966 14.4604 77.1494 14.568 77.0549 14.6621C76.974 14.7563 76.866 14.8034 76.7311 14.8034H74.6464C74.471 14.8034 74.336 14.763 74.2416 14.6823C74.1606 14.6016 74.0931 14.5276 74.0392 14.4604L70.4972 8.91182H68.6351V14.3191C68.6351 14.4536 68.5879 14.568 68.4934 14.6621C68.4125 14.7563 68.2978 14.8034 68.1493 14.8034H66.3075Z" fill="white"/>
<path d="M84.8457 15.0051C83.5909 15.0051 82.5249 14.7899 81.6478 14.3595C80.7842 13.9156 80.1231 13.2901 79.6643 12.4831C79.2055 11.6626 78.9492 10.6806 78.8952 9.5373C78.8817 8.98581 78.8749 8.39396 78.8749 7.76176C78.8749 7.12956 78.8817 6.52427 78.8952 5.94587C78.9492 4.81599 79.2055 3.84079 79.6643 3.02027C80.1366 2.19976 80.8045 1.57429 81.6681 1.14385C82.5451 0.699971 83.6043 0.478029 84.8457 0.478029C85.7633 0.478029 86.5864 0.599088 87.315 0.841207C88.0436 1.08333 88.6643 1.4196 89.1771 1.85003C89.6898 2.26702 90.0879 2.75798 90.3712 3.32292C90.6546 3.88787 90.803 4.49989 90.8165 5.15899C90.83 5.28005 90.7895 5.38093 90.6951 5.46164C90.6141 5.54234 90.5129 5.5827 90.3915 5.5827H88.4687C88.3203 5.5827 88.1988 5.54907 88.1044 5.48181C88.0099 5.40111 87.9424 5.27332 87.902 5.09846C87.6861 4.21069 87.315 3.60539 86.7888 3.28257C86.2625 2.95974 85.6081 2.79833 84.8255 2.79833C83.9214 2.79833 83.1995 3.0539 82.6598 3.56504C82.1201 4.06273 81.83 4.88997 81.7895 6.04676C81.749 7.14974 81.749 8.27963 81.7895 9.43642C81.83 10.5932 82.1201 11.4272 82.6598 11.9383C83.1995 12.436 83.9214 12.6848 84.8255 12.6848C85.6081 12.6848 86.2625 12.5234 86.7888 12.2006C87.315 11.8643 87.6861 11.259 87.902 10.3847C87.9424 10.1964 88.0099 10.0686 88.1044 10.0014C88.1988 9.9341 88.3203 9.90048 88.4687 9.90048H90.3915C90.5129 9.90048 90.6141 9.94083 90.6951 10.0215C90.7895 10.1022 90.83 10.2031 90.8165 10.3242C90.803 10.9833 90.6546 11.5953 90.3712 12.1602C90.0879 12.7252 89.6898 13.2229 89.1771 13.6533C88.6643 14.0703 88.0436 14.3998 87.315 14.642C86.5864 14.8841 85.7633 15.0051 84.8457 15.0051Z" fill="white"/>
<path d="M93.7026 14.8034C93.5677 14.8034 93.453 14.7563 93.3585 14.6621C93.2641 14.568 93.2169 14.4469 93.2169 14.299V1.18421C93.2169 1.03625 93.2641 0.915187 93.3585 0.82103C93.453 0.726873 93.5744 0.679794 93.7228 0.679794H95.5444C95.6929 0.679794 95.8076 0.726873 95.8885 0.82103C95.983 0.915187 96.0302 1.03625 96.0302 1.18421V10.4452L102.689 1.00262C102.743 0.935364 102.817 0.868109 102.912 0.800854C103.006 0.720147 103.128 0.679794 103.276 0.679794H104.956C105.091 0.679794 105.206 0.726873 105.3 0.82103C105.395 0.915187 105.442 1.03625 105.442 1.18421V14.3191C105.442 14.4536 105.395 14.568 105.3 14.6621C105.206 14.7563 105.091 14.8034 104.956 14.8034H103.134C102.986 14.8034 102.865 14.7563 102.77 14.6621C102.676 14.568 102.628 14.4536 102.628 14.3191V5.23969L95.9897 14.4806C95.9492 14.5344 95.8818 14.6016 95.7873 14.6823C95.6929 14.763 95.5647 14.8034 95.4028 14.8034H93.7026Z" fill="white"/>
<path d="M117.966 14.8034C117.831 14.8034 117.716 14.7563 117.621 14.6621C117.527 14.568 117.48 14.4536 117.48 14.3191V3.20186H113.088V5.74411C113.088 7.35823 113 8.73696 112.825 9.8803C112.663 11.0236 112.393 11.9518 112.015 12.6647C111.637 13.3641 111.124 13.8887 110.477 14.2384C109.829 14.5747 109.02 14.7563 108.048 14.7832C107.913 14.7967 107.792 14.7563 107.684 14.6621C107.589 14.5545 107.542 14.4335 107.542 14.299V12.7857C107.542 12.5033 107.697 12.3418 108.008 12.3015C108.412 12.2342 108.756 12.0459 109.04 11.7365C109.337 11.4272 109.579 10.99 109.768 10.4251C109.971 9.86012 110.119 9.16067 110.214 8.3267C110.308 7.47929 110.355 6.49736 110.355 5.38093V1.16403C110.355 1.02952 110.403 0.915187 110.497 0.82103C110.591 0.726873 110.706 0.679794 110.841 0.679794H119.787C119.936 0.679794 120.057 0.726873 120.151 0.82103C120.246 0.915187 120.293 1.03625 120.293 1.18421V14.3191C120.293 14.4536 120.246 14.568 120.151 14.6621C120.057 14.7563 119.936 14.8034 119.787 14.8034H117.966Z" fill="white"/>
<path d="M128.903 15.0051C127.702 15.0051 126.67 14.8101 125.806 14.42C124.942 14.0165 124.268 13.4045 123.782 12.584C123.296 11.75 123.033 10.7143 122.993 9.47677C122.979 8.89837 122.972 8.3267 122.972 7.76176C122.972 7.19682 122.979 6.61842 122.993 6.02658C123.033 4.80254 123.303 3.78026 123.802 2.95974C124.302 2.13923 124.983 1.52048 125.847 1.1035C126.724 0.68652 127.742 0.478029 128.903 0.478029C130.063 0.478029 131.082 0.68652 131.959 1.1035C132.836 1.52048 133.524 2.13923 134.023 2.95974C134.523 3.78026 134.793 4.80254 134.833 6.02658C134.86 6.61842 134.874 7.19682 134.874 7.76176C134.874 8.3267 134.86 8.89837 134.833 9.47677C134.793 10.7143 134.529 11.75 134.044 12.584C133.558 13.4045 132.877 14.0165 131.999 14.42C131.136 14.8101 130.104 15.0051 128.903 15.0051ZM128.903 12.6848C129.78 12.6848 130.495 12.4293 131.048 11.9181C131.601 11.3935 131.898 10.5461 131.939 9.37589C131.966 8.78404 131.979 8.23927 131.979 7.74158C131.979 7.23045 131.966 6.68568 131.939 6.10729C131.912 5.32713 131.763 4.69493 131.493 4.21069C131.237 3.713 130.886 3.35655 130.441 3.14133C129.996 2.91267 129.483 2.79833 128.903 2.79833C128.336 2.79833 127.83 2.91267 127.385 3.14133C126.939 3.35655 126.582 3.713 126.312 4.21069C126.056 4.69493 125.914 5.32713 125.887 6.10729C125.874 6.68568 125.867 7.23045 125.867 7.74158C125.867 8.23927 125.874 8.78404 125.887 9.37589C125.927 10.5461 126.224 11.3935 126.778 11.9181C127.331 12.4293 128.039 12.6848 128.903 12.6848Z" fill="white"/>
<path d="M138.017 14.8034C137.882 14.8034 137.767 14.763 137.673 14.6823C137.579 14.5882 137.531 14.4671 137.531 14.3191V1.18421C137.531 1.03625 137.579 0.915187 137.673 0.82103C137.767 0.726873 137.882 0.679794 138.017 0.679794H139.859C140.007 0.679794 140.122 0.726873 140.203 0.82103C140.297 0.915187 140.345 1.03625 140.345 1.18421V6.38976H146.315V1.18421C146.315 1.03625 146.363 0.915187 146.457 0.82103C146.552 0.726873 146.666 0.679794 146.801 0.679794H148.623C148.771 0.679794 148.893 0.726873 148.987 0.82103C149.082 0.915187 149.129 1.03625 149.129 1.18421V14.3191C149.129 14.4536 149.082 14.568 148.987 14.6621C148.893 14.7563 148.771 14.8034 148.623 14.8034H146.801C146.666 14.8034 146.552 14.7563 146.457 14.6621C146.363 14.568 146.315 14.4536 146.315 14.3191V8.91182H140.345V14.3191C140.345 14.4536 140.297 14.568 140.203 14.6621C140.122 14.7563 140.007 14.8034 139.859 14.8034H138.017Z" fill="white"/>
<path d="M155.628 8.71627C155.021 8.71627 154.454 8.60328 153.928 8.3773C153.402 8.15133 152.936 7.84061 152.531 7.44515C152.135 7.04161 151.823 6.57755 151.596 6.05296C151.37 5.52837 151.256 4.96343 151.256 4.35813C151.256 3.75284 151.37 3.18789 151.596 2.6633C151.823 2.13871 152.135 1.67869 152.531 1.28323C152.936 0.879697 153.402 0.564943 153.928 0.338966C154.454 0.112989 155.021 0 155.628 0C156.235 0 156.802 0.112989 157.328 0.338966C157.855 0.564943 158.316 0.879697 158.713 1.28323C159.118 1.67869 159.433 2.13871 159.66 2.6633C159.887 3.18789 160 3.75284 160 4.35813C160 4.96343 159.887 5.52837 159.66 6.05296C159.433 6.57755 159.118 7.04161 158.713 7.44515C158.316 7.84061 157.855 8.15133 157.328 8.3773C156.802 8.60328 156.235 8.71627 155.628 8.71627ZM155.628 7.79622C156.106 7.79622 156.547 7.70744 156.952 7.52989C157.365 7.35233 157.725 7.10618 158.033 6.79143C158.34 6.47667 158.583 6.10946 158.761 5.68979C158.939 5.27011 159.028 4.82623 159.028 4.35813C159.028 3.89004 158.939 3.44615 158.761 3.02648C158.583 2.60681 158.34 2.2396 158.033 1.92484C157.725 1.61009 157.365 1.36393 156.952 1.18638C156.547 1.00883 156.106 0.920051 155.628 0.920051C155.159 0.920051 154.717 1.00883 154.304 1.18638C153.9 1.36393 153.539 1.61009 153.224 1.92484C152.916 2.2396 152.673 2.60681 152.495 3.02648C152.325 3.44615 152.24 3.89004 152.24 4.35813C152.24 4.82623 152.325 5.27011 152.495 5.68979C152.673 6.10946 152.916 6.47667 153.224 6.79143C153.539 7.10618 153.9 7.35233 154.304 7.52989C154.717 7.70744 155.159 7.79622 155.628 7.79622ZM154.147 6.56141C153.968 6.56141 153.879 6.47264 153.879 6.29508V2.39697C153.879 2.21942 153.968 2.13064 154.147 2.13064H155.81C156.118 2.13064 156.409 2.17907 156.685 2.27591C156.96 2.36469 157.183 2.51803 157.353 2.73594C157.531 2.94578 157.62 3.23228 157.62 3.59546C157.62 3.91829 157.543 4.18462 157.389 4.39445C157.243 4.59622 157.061 4.74552 156.843 4.84237L157.523 6.1256C157.539 6.14981 157.551 6.17402 157.559 6.19824C157.567 6.22245 157.571 6.25473 157.571 6.29508C157.571 6.35965 157.547 6.42018 157.498 6.47667C157.458 6.53317 157.393 6.56141 157.304 6.56141H156.697C156.616 6.56141 156.547 6.54527 156.49 6.51299C156.434 6.47264 156.385 6.41211 156.345 6.3314L155.713 5.06028H155.057V6.29508C155.057 6.47264 154.968 6.56141 154.79 6.56141H154.147ZM155.057 4.10391H155.798C156.033 4.10391 156.195 4.05145 156.284 3.94653C156.373 3.84161 156.418 3.72459 156.418 3.59546C156.418 3.45019 156.373 3.32913 156.284 3.23228C156.195 3.12736 156.033 3.07491 155.798 3.07491H155.057V4.10391Z" fill="white"/>
<path d="M2.96438 31.8758C2.88134 31.8758 2.81076 31.851 2.75263 31.8013C2.70281 31.7434 2.6779 31.673 2.6779 31.5903V24.2895H0.286473C0.203438 24.2895 0.132857 24.2646 0.0747322 24.215C0.0249107 24.157 0 24.0867 0 24.0039V23.4824C0 23.3913 0.0249107 23.321 0.0747322 23.2713C0.132857 23.2134 0.203438 23.1844 0.286473 23.1844H6.28996C6.3813 23.1844 6.45188 23.2134 6.5017 23.2713C6.55982 23.321 6.58889 23.3913 6.58889 23.4824V24.0039C6.58889 24.0867 6.55982 24.157 6.5017 24.215C6.45188 24.2646 6.3813 24.2895 6.28996 24.2895H3.91098V31.5903C3.91098 31.673 3.88192 31.7434 3.8238 31.8013C3.77397 31.851 3.70339 31.8758 3.61206 31.8758H2.96438Z" fill="white"/>
<path d="M8.27162 31.8758C8.18029 31.8758 8.10971 31.851 8.05988 31.8013C8.01006 31.7434 7.98515 31.673 7.98515 31.5903V23.4824C7.98515 23.3913 8.01006 23.321 8.05988 23.2713C8.10971 23.2134 8.18029 23.1844 8.27162 23.1844H11.3107C12.249 23.1844 12.9922 23.4038 13.5402 23.8425C14.0883 24.2812 14.3623 24.931 14.3623 25.7918C14.3623 26.4292 14.2004 26.9507 13.8765 27.3563C13.561 27.7536 13.1292 28.0309 12.5812 28.1882L14.4993 31.4909C14.5242 31.5406 14.5367 31.5861 14.5367 31.6275C14.5367 31.6937 14.5076 31.7517 14.4495 31.8013C14.3997 31.851 14.3415 31.8758 14.2751 31.8758H13.6773C13.5361 31.8758 13.4323 31.8386 13.3659 31.7641C13.2994 31.6896 13.2413 31.6151 13.1915 31.5406L11.3855 28.3868H9.20578V31.5903C9.20578 31.673 9.17671 31.7434 9.11859 31.8013C9.06877 31.851 8.99819 31.8758 8.90685 31.8758H8.27162ZM9.20578 27.3315H11.2609C11.8837 27.3315 12.3487 27.2032 12.6559 26.9466C12.9631 26.6817 13.1168 26.2926 13.1168 25.7794C13.1168 25.2745 12.9631 24.8896 12.6559 24.6247C12.357 24.3598 11.892 24.2274 11.2609 24.2274H9.20578V27.3315Z" fill="white"/>
<path d="M16.4333 31.8758C16.342 31.8758 16.2714 31.851 16.2215 31.8013C16.1717 31.7434 16.1468 31.673 16.1468 31.5903V23.47C16.1468 23.3872 16.1717 23.321 16.2215 23.2713C16.2714 23.2134 16.342 23.1844 16.4333 23.1844H17.0934C17.1765 23.1844 17.2429 23.2134 17.2927 23.2713C17.3508 23.321 17.3799 23.3872 17.3799 23.47V31.5903C17.3799 31.673 17.3508 31.7434 17.2927 31.8013C17.2429 31.851 17.1765 31.8758 17.0934 31.8758H16.4333Z" fill="white"/>
<path d="M22.7162 32C21.9855 32 21.3628 31.8634 20.8479 31.5903C20.3414 31.3171 19.9512 30.9322 19.6771 30.4355C19.4114 29.9389 19.262 29.3553 19.2287 28.6848C19.2204 28.3206 19.2163 27.9357 19.2163 27.5301C19.2163 27.1162 19.2204 26.7231 19.2287 26.3506C19.262 25.6801 19.4114 25.1007 19.6771 24.6123C19.9512 24.1239 20.3456 23.7431 20.8604 23.47C21.3752 23.1968 21.9938 23.0602 22.7162 23.0602C23.3058 23.0602 23.8165 23.143 24.2483 23.3086C24.68 23.4741 25.0329 23.6852 25.307 23.9418C25.5893 24.1901 25.7969 24.4509 25.9297 24.724C26.0709 24.9972 26.1456 25.2372 26.1539 25.4442C26.1622 25.5187 26.1415 25.5808 26.0916 25.6304C26.0418 25.6718 25.9754 25.6925 25.8924 25.6925H25.1575C25.0745 25.6925 25.0122 25.6759 24.9707 25.6428C24.9375 25.6097 24.9042 25.5518 24.871 25.469C24.7963 25.2538 24.6717 25.0427 24.4974 24.8358C24.3313 24.6288 24.1029 24.4591 23.8123 24.3267C23.53 24.186 23.1646 24.1156 22.7162 24.1156C22.0603 24.1156 21.5288 24.2936 21.122 24.6495C20.7234 25.0055 20.5075 25.5932 20.4743 26.4126C20.4494 27.1494 20.4494 27.8861 20.4743 28.6228C20.5075 29.4505 20.7275 30.0465 21.1344 30.4107C21.5413 30.7666 22.0727 30.9446 22.7287 30.9446C23.1688 30.9446 23.5591 30.866 23.8995 30.7087C24.2483 30.5432 24.5223 30.2907 24.7216 29.9513C24.9208 29.6119 25.0205 29.1815 25.0205 28.66V28.1385H23.1522C23.0691 28.1385 22.9986 28.1137 22.9404 28.064C22.8906 28.0061 22.8657 27.9316 22.8657 27.8405V27.4432C22.8657 27.3522 22.8906 27.2818 22.9404 27.2321C22.9986 27.1742 23.0691 27.1452 23.1522 27.1452H25.9671C26.0584 27.1452 26.129 27.1742 26.1788 27.2321C26.2287 27.2818 26.2536 27.3522 26.2536 27.4432V28.6352C26.2536 29.3139 26.1124 29.9058 25.8301 30.4107C25.5561 30.9156 25.1533 31.3088 24.6219 31.5903C24.0905 31.8634 23.4553 32 22.7162 32Z" fill="white"/>
<path d="M28.317 31.8758C28.2256 31.8758 28.1551 31.851 28.1052 31.8013C28.0554 31.7434 28.0305 31.673 28.0305 31.5903V23.4824C28.0305 23.3913 28.0554 23.321 28.1052 23.2713C28.1551 23.2134 28.2256 23.1844 28.317 23.1844H33.461C33.5524 23.1844 33.623 23.2134 33.6728 23.2713C33.7226 23.321 33.7475 23.3913 33.7475 23.4824V23.9542C33.7475 24.0453 33.7226 24.1156 33.6728 24.1653C33.623 24.215 33.5524 24.2398 33.461 24.2398H29.2262V26.959H33.187C33.2784 26.959 33.3489 26.9879 33.3988 27.0459C33.4486 27.0955 33.4735 27.1659 33.4735 27.257V27.7164C33.4735 27.7991 33.4486 27.8695 33.3988 27.9274C33.3489 27.9771 33.2784 28.0019 33.187 28.0019H29.2262V30.8204H33.5607C33.652 30.8204 33.7226 30.8453 33.7724 30.8949C33.8222 30.9446 33.8472 31.015 33.8472 31.106V31.5903C33.8472 31.673 33.8222 31.7434 33.7724 31.8013C33.7226 31.851 33.652 31.8758 33.5607 31.8758H28.317Z" fill="white"/>
<path d="M35.0609 31.8758C34.9944 31.8758 34.9322 31.851 34.874 31.8013C34.8242 31.7517 34.7993 31.6937 34.7993 31.6275C34.7993 31.5944 34.8035 31.5654 34.8118 31.5406C34.8284 31.5075 34.8408 31.4827 34.8491 31.4661L37.7014 27.4556L34.9861 23.5941C34.9612 23.5445 34.9488 23.4907 34.9488 23.4327C34.9488 23.3665 34.9737 23.3086 35.0235 23.2589C35.0733 23.2092 35.1314 23.1844 35.1979 23.1844H35.9452C36.0282 23.1844 36.0947 23.2051 36.1445 23.2465C36.1943 23.2796 36.24 23.3293 36.2815 23.3955L38.4736 26.4996L40.6533 23.3955C40.6865 23.3293 40.7281 23.2796 40.7779 23.2465C40.836 23.2051 40.9024 23.1844 40.9772 23.1844H41.6871C41.7536 23.1844 41.8117 23.2092 41.8615 23.2589C41.9113 23.3086 41.9362 23.3665 41.9362 23.4327C41.9362 23.4907 41.9196 23.5445 41.8864 23.5941L39.2085 27.468L42.0483 31.4661C42.0649 31.4827 42.0774 31.5075 42.0857 31.5406C42.094 31.5654 42.0981 31.5944 42.0981 31.6275C42.0981 31.6937 42.0732 31.7517 42.0234 31.8013C41.9736 31.851 41.9113 31.8758 41.8366 31.8758H41.0768C41.0021 31.8758 40.9356 31.8551 40.8775 31.8138C40.8277 31.7724 40.782 31.7268 40.7405 31.6772L38.4238 28.4489L36.1196 31.6772C36.0781 31.7268 36.0324 31.7724 35.9826 31.8138C35.9327 31.8551 35.8663 31.8758 35.7833 31.8758H35.0609Z" fill="white"/>
<path d="M43.7524 31.8758C43.661 31.8758 43.5905 31.851 43.5406 31.8013C43.4908 31.7434 43.4659 31.673 43.4659 31.5903V23.47C43.4659 23.3872 43.4908 23.321 43.5406 23.2713C43.5905 23.2134 43.661 23.1844 43.7524 23.1844H44.4125C44.4955 23.1844 44.562 23.2134 44.6118 23.2713C44.6699 23.321 44.699 23.3872 44.699 23.47V31.5903C44.699 31.673 44.6699 31.7434 44.6118 31.8013C44.562 31.851 44.4955 31.8758 44.4125 31.8758H43.7524Z" fill="white"/>
<path d="M47.1581 31.8758C47.0668 31.8758 46.9962 31.851 46.9464 31.8013C46.8966 31.7434 46.8717 31.673 46.8717 31.5903V23.47C46.8717 23.3872 46.8966 23.321 46.9464 23.2713C46.9962 23.2134 47.0668 23.1844 47.1581 23.1844H47.8183C47.9013 23.1844 47.9677 23.2134 48.0176 23.2713C48.0674 23.321 48.0923 23.3872 48.0923 23.47V30.7956H52.2399C52.3313 30.7956 52.4018 30.8246 52.4517 30.8825C52.5015 30.9322 52.5264 31.0026 52.5264 31.0936V31.5903C52.5264 31.673 52.5015 31.7434 52.4517 31.8013C52.4018 31.851 52.3313 31.8758 52.2399 31.8758H47.1581Z" fill="white"/>
<path d="M56.8946 32C56.1888 32 55.5827 31.88 55.0761 31.6399C54.5696 31.3916 54.1794 31.015 53.9053 30.51C53.6313 29.9968 53.4777 29.3553 53.4445 28.5855C53.4362 28.2213 53.432 27.8736 53.432 27.5425C53.432 27.2032 53.4362 26.8514 53.4445 26.4871C53.4777 25.7256 53.6355 25.0924 53.9178 24.5874C54.2084 24.0742 54.607 23.6935 55.1135 23.4451C55.6283 23.1885 56.222 23.0602 56.8946 23.0602C57.5755 23.0602 58.1692 23.1885 58.6757 23.4451C59.1906 23.6935 59.5933 24.0742 59.8839 24.5874C60.1745 25.0924 60.3323 25.7256 60.3572 26.4871C60.3738 26.8514 60.3821 27.2032 60.3821 27.5425C60.3821 27.8736 60.3738 28.2213 60.3572 28.5855C60.3323 29.3553 60.1787 29.9968 59.8964 30.51C59.6224 31.015 59.2321 31.3916 58.7256 31.6399C58.2191 31.88 57.6087 32 56.8946 32ZM56.8946 30.9446C57.534 30.9446 58.053 30.7542 58.4516 30.3735C58.8584 29.9927 59.0785 29.376 59.1117 28.5234C59.1283 28.1509 59.1366 27.8198 59.1366 27.5301C59.1366 27.2321 59.1283 26.901 59.1117 26.5368C59.0951 25.9657 58.9871 25.5021 58.7878 25.1462C58.5969 24.7902 58.3395 24.5295 58.0156 24.364C57.6918 24.1984 57.3181 24.1156 56.8946 24.1156C56.4878 24.1156 56.1224 24.1984 55.7986 24.364C55.4747 24.5295 55.2132 24.7902 55.0139 25.1462C54.8229 25.5021 54.7149 25.9657 54.69 26.5368C54.6817 26.901 54.6776 27.2321 54.6776 27.5301C54.6776 27.8198 54.6817 28.1509 54.69 28.5234C54.7232 29.376 54.9433 29.9927 55.3502 30.3735C55.757 30.7542 56.2719 30.9446 56.8946 30.9446Z" fill="white"/>
<path d="M62.4841 31.8758C62.3927 31.8758 62.3222 31.851 62.2723 31.8013C62.2225 31.7434 62.1976 31.673 62.1976 31.5903V23.4824C62.1976 23.3913 62.2225 23.321 62.2723 23.2713C62.3222 23.2134 62.3927 23.1844 62.4841 23.1844H63.057C63.1567 23.1844 63.2314 23.2092 63.2812 23.2589C63.331 23.3003 63.3601 23.3334 63.3684 23.3582L67.5036 29.6906V23.4824C67.5036 23.3913 67.5285 23.321 67.5783 23.2713C67.6281 23.2134 67.6987 23.1844 67.7901 23.1844H68.3879C68.4793 23.1844 68.5498 23.2134 68.5997 23.2713C68.6578 23.321 68.6868 23.3913 68.6868 23.4824V31.5778C68.6868 31.6606 68.6578 31.731 68.5997 31.7889C68.5498 31.8469 68.4834 31.8758 68.4004 31.8758H67.8025C67.7112 31.8758 67.6406 31.851 67.5908 31.8013C67.5492 31.7517 67.5202 31.7186 67.5036 31.702L63.3809 25.4318V31.5903C63.3809 31.673 63.3518 31.7434 63.2937 31.8013C63.2439 31.851 63.1733 31.8758 63.0819 31.8758H62.4841Z" fill="white"/>
</svg>
